<svg id="hair" width="40" height="40" viewBox="0 0 40 40" fill="none" xmlns="http://www.w3.org/2000/svg">
<path d="M31.5294 14.2118C31.5294 18.8819 28.7623 22.9082 24.7793 24.7351C26.4612 23.3496 27.5322 21.248 27.5322 18.896C27.5322 14.7642 24.2259 11.4042 20.112 11.3205C20.0574 11.3167 20.0075 11.3167 19.9529 11.3167C19.8983 11.3167 19.8485 11.3167 19.7939 11.3205C18.2673 11.4033 17.0588 12.6663 17.0588 14.2108V28.6814C17.0588 33.4748 13.1699 37.3638 8.37646 37.3638V14.2118C8.37646 7.81928 13.5605 2.63528 19.9529 2.63528C26.3454 2.63528 31.5294 7.81928 31.5294 14.2118Z" fill="black"/>
<path d="M21.9992 16.2582C23.1294 15.128 23.1294 13.2956 21.9992 12.1654C20.8689 11.0351 19.0365 11.0351 17.9063 12.1654C16.7761 13.2956 16.7761 15.128 17.9063 16.2582C19.0365 17.3884 20.8689 17.3884 21.9992 16.2582Z" fill="black"/>
</svg>
<svg id="resume" width="153" height="56" viewBox="0 0 153 56" fill="none" xmlns="http://www.w3.org/2000/svg">
<rect width="153" height="56" rx="4" fill="black"/>
<path d="M21.8 35V20.3H24.64V35H21.8ZM30.72 35L26.24 28.64H29.42L34.04 35H30.72ZM23.8 30.12V27.82H27.52C28.04 27.82 28.4867 27.7133 28.86 27.5C29.2467 27.2867 29.5467 26.9867 29.76 26.6C29.9733 26.2133 30.08 25.7733 30.08 25.28C30.08 24.7733 29.9733 24.3267 29.76 23.94C29.5467 23.5533 29.2467 23.2533 28.86 23.04C28.4867 22.8267 28.04 22.72 27.52 22.72H23.8V20.3H27.22C28.3933 20.3 29.4067 20.4733 30.26 20.82C31.1267 21.1667 31.7933 21.6933 32.26 22.4C32.7267 23.1067 32.96 23.9933 32.96 25.06V25.38C32.96 26.46 32.72 27.3467 32.24 28.04C31.7733 28.7333 31.1133 29.2533 30.26 29.6C29.4067 29.9467 28.3933 30.12 27.22 30.12H23.8ZM41.0392 35.38C40.1059 35.38 39.2859 35.22 38.5792 34.9C37.8859 34.58 37.3059 34.1533 36.8392 33.62C36.3859 33.0733 36.0392 32.4667 35.7992 31.8C35.5726 31.1333 35.4592 30.4533 35.4592 29.76V29.38C35.4592 28.66 35.5726 27.9667 35.7992 27.3C36.0392 26.62 36.3859 26.02 36.8392 25.5C37.3059 24.9667 37.8792 24.5467 38.5592 24.24C39.2392 23.92 40.0259 23.76 40.9192 23.76C42.0926 23.76 43.0726 24.02 43.8592 24.54C44.6592 25.0467 45.2592 25.72 45.6592 26.56C46.0592 27.3867 46.2592 28.28 46.2592 29.24V30.24H36.6392V28.54H44.5192L43.6592 29.38C43.6592 28.6867 43.5592 28.0933 43.3592 27.6C43.1592 27.1067 42.8526 26.7267 42.4392 26.46C42.0392 26.1933 41.5326 26.06 40.9192 26.06C40.3059 26.06 39.7859 26.2 39.3592 26.48C38.9326 26.76 38.6059 27.1667 38.3792 27.7C38.1659 28.22 38.0592 28.8467 38.0592 29.58C38.0592 30.26 38.1659 30.8667 38.3792 31.4C38.5926 31.92 38.9192 32.3333 39.3592 32.64C39.7992 32.9333 40.3592 33.08 41.0392 33.08C41.7192 33.08 42.2726 32.9467 42.6992 32.68C43.1259 32.4 43.3992 32.06 43.5192 31.66H46.0792C45.9192 32.4067 45.6126 33.06 45.1592 33.62C44.7059 34.18 44.1259 34.6133 43.4192 34.92C42.7259 35.2267 41.9326 35.38 41.0392 35.38ZM52.9216 35.34C51.4282 35.34 50.2549 35.0267 49.4016 34.4C48.5616 33.76 48.1216 32.88 48.0816 31.76H50.5816C50.6216 32.1333 50.8282 32.4733 51.2016 32.78C51.5749 33.0867 52.1616 33.24 52.9616 33.24C53.6282 33.24 54.1549 33.12 54.5416 32.88C54.9416 32.64 55.1416 32.3133 55.1416 31.9C55.1416 31.54 54.9882 31.2533 54.6816 31.04C54.3882 30.8267 53.8816 30.6867 53.1616 30.62L52.2016 30.52C50.9882 30.3867 50.0549 30.04 49.4016 29.48C48.7482 28.92 48.4216 28.1733 48.4216 27.24C48.4216 26.4933 48.6082 25.8667 48.9816 25.36C49.3549 24.8533 49.8682 24.4733 50.5216 24.22C51.1882 23.9533 51.9482 23.82 52.8016 23.82C54.1349 23.82 55.2149 24.1133 56.0416 24.7C56.8682 25.2867 57.3016 26.1467 57.3416 27.28H54.8416C54.8149 26.9067 54.6282 26.5867 54.2816 26.32C53.9349 26.0533 53.4349 25.92 52.7816 25.92C52.1949 25.92 51.7416 26.0333 51.4216 26.26C51.1016 26.4867 50.9416 26.78 50.9416 27.14C50.9416 27.4867 51.0682 27.7533 51.3216 27.94C51.5882 28.1267 52.0149 28.2533 52.6016 28.32L53.5616 28.42C54.8416 28.5533 55.8416 28.9067 56.5616 29.48C57.2949 30.0533 57.6616 30.8267 57.6616 31.8C57.6616 32.52 57.4616 33.1467 57.0616 33.68C56.6749 34.2 56.1282 34.6067 55.4216 34.9C54.7149 35.1933 53.8816 35.34 52.9216 35.34ZM64.0581 35.34C62.8048 35.34 61.8315 34.9267 61.1381 34.1C60.4581 33.2733 60.1181 32.0467 60.1181 30.42V24.12H62.8981V30.66C62.8981 31.3267 63.0848 31.86 63.4581 32.26C63.8315 32.6467 64.3381 32.84 64.9781 32.84C65.6181 32.84 66.1381 32.6333 66.5381 32.22C66.9515 31.8067 67.1581 31.2467 67.1581 30.54V24.12H69.9381V35H67.7381V30.38H67.9581C67.9581 31.4733 67.8181 32.3867 67.5381 33.12C67.2581 33.8533 66.8381 34.4067 66.2781 34.78C65.7181 35.1533 65.0181 35.34 64.1781 35.34H64.0581ZM73.5316 35V24.14H75.7316V28.8H75.5316C75.5316 27.7067 75.6716 26.7933 75.9516 26.06C76.2316 25.3133 76.6449 24.7533 77.1916 24.38C77.7516 23.9933 78.4449 23.8 79.2716 23.8H79.3916C80.2316 23.8 80.9249 23.9933 81.4716 24.38C82.0316 24.7533 82.4449 25.3133 82.7116 26.06C82.9916 26.7933 83.1316 27.7067 83.1316 28.8H82.4316C82.4316 27.7067 82.5716 26.7933 82.8516 26.06C83.1449 25.3133 83.5649 24.7533 84.1116 24.38C84.6716 23.9933 85.3649 23.8 86.1916 23.8H86.3116C87.1516 23.8 87.8516 23.9933 88.4116 24.38C88.9716 24.7533 89.3916 25.3133 89.6716 26.06C89.9649 26.7933 90.1116 27.7067 90.1116 28.8V35H87.3316V28.54C87.3316 27.86 87.1582 27.32 86.8116 26.92C86.4649 26.5067 85.9716 26.3 85.3316 26.3C84.6916 26.3 84.1782 26.5133 83.7916 26.94C83.4049 27.3533 83.2116 27.9133 83.2116 28.62V35H80.4316V28.54C80.4316 27.86 80.2582 27.32 79.9116 26.92C79.5649 26.5067 79.0716 26.3 78.4316 26.3C77.7916 26.3 77.2782 26.5133 76.8916 26.94C76.5049 27.3533 76.3116 27.9133 76.3116 28.62V35H73.5316ZM98.3423 35.38C97.409 35.38 96.589 35.22 95.8823 34.9C95.189 34.58 94.609 34.1533 94.1423 33.62C93.689 33.0733 93.3423 32.4667 93.1023 31.8C92.8757 31.1333 92.7623 30.4533 92.7623 29.76V29.38C92.7623 28.66 92.8757 27.9667 93.1023 27.3C93.3423 26.62 93.689 26.02 94.1423 25.5C94.609 24.9667 95.1823 24.5467 95.8623 24.24C96.5423 23.92 97.329 23.76 98.2223 23.76C99.3957 23.76 100.376 24.02 101.162 24.54C101.962 25.0467 102.562 25.72 102.962 26.56C103.362 27.3867 103.562 28.28 103.562 29.24V30.24H93.9423V28.54H101.822L100.962 29.38C100.962 28.6867 100.862 28.0933 100.662 27.6C100.462 27.1067 100.156 26.7267 99.7423 26.46C99.3423 26.1933 98.8357 26.06 98.2223 26.06C97.609 26.06 97.089 26.2 96.6623 26.48C96.2357 26.76 95.909 27.1667 95.6823 27.7C95.469 28.22 95.3623 28.8467 95.3623 29.58C95.3623 30.26 95.469 30.8667 95.6823 31.4C95.8957 31.92 96.2223 32.3333 96.6623 32.64C97.1023 32.9333 97.6623 33.08 98.3423 33.08C99.0223 33.08 99.5757 32.9467 100.002 32.68C100.429 32.4 100.702 32.06 100.822 31.66H103.382C103.222 32.4067 102.916 33.06 102.462 33.62C102.009 34.18 101.429 34.6133 100.722 34.92C100.029 35.2267 99.2357 35.38 98.3423 35.38Z" fill="white"/>
<path d="M130.5 30.5V31.5C130.5 32.9001 130.5 33.6002 130.228 34.135C129.988 34.6054 129.605 34.9878 129.135 35.2275C128.6 35.5 127.9 35.5 126.5 35.5H119.5C118.1 35.5 117.4 35.5 116.865 35.2275C116.395 34.9878 116.012 34.6054 115.772 34.135C115.5 33.6002 115.5 32.9001 115.5 31.5V30.5M127.167 26.3333L123 30.5M123 30.5L118.833 26.3333M123 30.5V20.5" stroke="white" stroke-width="2" stroke-linecap="round" stroke-linejoin="round"/>
</svg>
<svg id="google" width="32" height="32" viewBox="0 0 32 32" fill="none" xmlns="http://www.w3.org/2000/svg">
<path d="M30.0014 16.3109C30.0014 15.1598 29.9061 14.3198 29.6998 13.4487H16.2871V18.6442H24.1601C24.0014 19.9354 23.1442 21.8798 21.2394 23.1864L21.2127 23.3604L25.4536 26.58L25.7474 26.6087C28.4458 24.1665 30.0014 20.5731 30.0014 16.3109Z" fill="#4285F4"/>
<path d="M16.2863 30C20.1434 30 23.3814 28.7555 25.7466 26.6089L21.2386 23.1865C20.0323 24.011 18.4132 24.5866 16.2863 24.5866C12.5086 24.5866 9.30225 22.1444 8.15929 18.7688L7.99176 18.7827L3.58208 22.1272L3.52441 22.2843C5.87359 26.8577 10.699 30 16.2863 30Z" fill="#34A853"/>
<path d="M8.16013 18.7688C7.85855 17.8977 7.68401 16.9643 7.68401 15.9999C7.68401 15.0354 7.85855 14.1021 8.14426 13.231L8.13627 13.0455L3.67132 9.64734L3.52524 9.71544C2.55703 11.6132 2.00146 13.7444 2.00146 15.9999C2.00146 18.2555 2.55703 20.3865 3.52524 22.2843L8.16013 18.7688Z" fill="#FBBC05"/>
<path d="M16.2864 7.4133C18.9689 7.4133 20.7784 8.54885 21.8102 9.4978L25.8419 5.64C23.3658 3.38445 20.1435 2 16.2864 2C10.699 2 5.8736 5.1422 3.52441 9.71549L8.14345 13.2311C9.30229 9.85555 12.5086 7.4133 16.2864 7.4133Z" fill="#EB4335"/>
</svg>
<svg id="youtube" width="32" height="32" viewBox="0 0 32 32" fill="none" xmlns="http://www.w3.org/2000/svg">
<path d="M2.24451 9.94111C2.37304 7.96233 3.96395 6.41157 5.94447 6.31345C8.81239 6.17136 12.9115 6 16 6C19.0885 6 23.1876 6.17136 26.0555 6.31345C28.0361 6.41157 29.627 7.96233 29.7555 9.94111C29.8786 11.8369 30 14.1697 30 16C30 17.8303 29.8786 20.1631 29.7555 22.0589C29.627 24.0377 28.0361 25.5884 26.0555 25.6866C23.1876 25.8286 19.0885 26 16 26C12.9115 26 8.81239 25.8286 5.94447 25.6866C3.96395 25.5884 2.37304 24.0377 2.24451 22.0589C2.12136 20.1631 2 17.8303 2 16C2 14.1697 2.12136 11.8369 2.24451 9.94111Z" fill="#FC0D1B"/>
<path d="M13 12V20L21 16L13 12Z" fill="white"/>
</svg>
<svg id="apple" width="32" height="32" viewBox="0 0 32 32" fill="none" xmlns="http://www.w3.org/2000/svg">
<path d="M30 16C30 23.728 23.735 30 16 30C8.265 30 2 23.728 2 16C2 8.265 8.265 2 16 2C23.735 2 30 8.265 30 16Z" fill="#283544"/>
<path d="M22.5621 12.4574C22.4857 12.502 20.6671 13.4425 20.6671 15.5279C20.7528 17.9061 22.9621 18.7401 23 18.7401C22.9621 18.7847 22.6665 19.8763 21.7907 21.0205C21.0956 22.0062 20.3242 23 19.1528 23C18.0385 23 17.6385 22.3431 16.3528 22.3431C14.972 22.3431 14.5813 23 13.5242 23C12.3528 23 11.5242 21.953 10.7913 20.9766C9.8391 19.6986 9.02978 17.6931 9.00121 15.7675C8.98195 14.7471 9.19189 13.744 9.72481 12.8921C10.477 11.7026 11.8198 10.8952 13.2863 10.8686C14.4099 10.8333 15.4099 11.5875 16.0956 11.5875C16.7528 11.5875 17.9814 10.8686 19.3714 10.8686C19.9714 10.8692 21.5714 11.0376 22.5621 12.4574ZM16.0006 10.6649C15.8006 9.73303 16.3528 8.80119 16.8671 8.20677C17.5242 7.48792 18.5621 7 19.4571 7C19.5143 7.93185 19.1522 8.84575 18.505 9.51136C17.9242 10.2302 16.9242 10.7714 16.0006 10.6649Z" fill="white"/>
</svg>
<svg id="preoject-svg" width="20" height="21" viewBox="0 0 20 21" fill="none" xmlns="http://www.w3.org/2000/svg">
<path d="M10.8333 9.44759L17.6666 2.61426" stroke="white" stroke-width="2" stroke-linecap="round" stroke-linejoin="round"/>
<path d="M18.3333 5.94775V1.94775H14.3333" stroke="white" stroke-width="2" stroke-linecap="round" stroke-linejoin="round"/>
<path d="M9.16675 1.94775H7.50008C3.33341 1.94775 1.66675 3.61442 1.66675 7.78109V12.7811C1.66675 16.9478 3.33341 18.6144 7.50008 18.6144H12.5001C16.6667 18.6144 18.3334 16.9478 18.3334 12.7811V11.1144" stroke="white" stroke-width="2" stroke-linecap="round" stroke-linejoin="round"/>
</svg>





