<symbol id="icon-Group-1" viewBox="0 0 21 32">
<path d="M20.915 10.855c0 4.151-2.46 7.73-6 9.354 1.495-1.232 2.447-3.1 2.447-5.19 0-3.673-2.939-6.659-6.596-6.734-0.049-0.003-0.093-0.003-0.141-0.003s-0.093 0-0.141 0.003c-1.357 0.074-2.431 1.196-2.431 2.569v12.863c0 4.261-3.457 7.718-7.718 7.718v-20.58c0-5.682 4.608-10.29 10.29-10.29s10.29 4.608 10.29 10.29z"></path>
<path d="M12.444 12.674c1.005-1.005 1.005-2.633 0-3.638s-2.633-1.005-3.638 0c-1.005 1.005-1.005 2.633 0 3.638s2.633 1.005 3.638 0z"></path>
</symbol>
<svg id="resume" width="153" height="56" viewBox="0 0 153 56" fill="none" xmlns="http://www.w3.org/2000/svg">
<rect width="153" height="56" rx="4" fill="black"/>
<path d="M21.8 35V20.3H24.64V35H21.8ZM30.72 35L26.24 28.64H29.42L34.04 35H30.72ZM23.8 30.12V27.82H27.52C28.04 27.82 28.4867 27.7133 28.86 27.5C29.2467 27.2867 29.5467 26.9867 29.76 26.6C29.9733 26.2133 30.08 25.7733 30.08 25.28C30.08 24.7733 29.9733 24.3267 29.76 23.94C29.5467 23.5533 29.2467 23.2533 28.86 23.04C28.4867 22.8267 28.04 22.72 27.52 22.72H23.8V20.3H27.22C28.3933 20.3 29.4067 20.4733 30.26 20.82C31.1267 21.1667 31.7933 21.6933 32.26 22.4C32.7267 23.1067 32.96 23.9933 32.96 25.06V25.38C32.96 26.46 32.72 27.3467 32.24 28.04C31.7733 28.7333 31.1133 29.2533 30.26 29.6C29.4067 29.9467 28.3933 30.12 27.22 30.12H23.8ZM41.0392 35.38C40.1059 35.38 39.2859 35.22 38.5792 34.9C37.8859 34.58 37.3059 34.1533 36.8392 33.62C36.3859 33.0733 36.0392 32.4667 35.7992 31.8C35.5726 31.1333 35.4592 30.4533 35.4592 29.76V29.38C35.4592 28.66 35.5726 27.9667 35.7992 27.3C36.0392 26.62 36.3859 26.02 36.8392 25.5C37.3059 24.9667 37.8792 24.5467 38.5592 24.24C39.2392 23.92 40.0259 23.76 40.9192 23.76C42.0926 23.76 43.0726 24.02 43.8592 24.54C44.6592 25.0467 45.2592 25.72 45.6592 26.56C46.0592 27.3867 46.2592 28.28 46.2592 29.24V30.24H36.6392V28.54H44.5192L43.6592 29.38C43.6592 28.6867 43.5592 28.0933 43.3592 27.6C43.1592 27.1067 42.8526 26.7267 42.4392 26.46C42.0392 26.1933 41.5326 26.06 40.9192 26.06C40.3059 26.06 39.7859 26.2 39.3592 26.48C38.9326 26.76 38.6059 27.1667 38.3792 27.7C38.1659 28.22 38.0592 28.8467 38.0592 29.58C38.0592 30.26 38.1659 30.8667 38.3792 31.4C38.5926 31.92 38.9192 32.3333 39.3592 32.64C39.7992 32.9333 40.3592 33.08 41.0392 33.08C41.7192 33.08 42.2726 32.9467 42.6992 32.68C43.1259 32.4 43.3992 32.06 43.5192 31.66H46.0792C45.9192 32.4067 45.6126 33.06 45.1592 33.62C44.7059 34.18 44.1259 34.6133 43.4192 34.92C42.7259 35.2267 41.9326 35.38 41.0392 35.38ZM52.9216 35.34C51.4282 35.34 50.2549 35.0267 49.4016 34.4C48.5616 33.76 48.1216 32.88 48.0816 31.76H50.5816C50.6216 32.1333 50.8282 32.4733 51.2016 32.78C51.5749 33.0867 52.1616 33.24 52.9616 33.24C53.6282 33.24 54.1549 33.12 54.5416 32.88C54.9416 32.64 55.1416 32.3133 55.1416 31.9C55.1416 31.54 54.9882 31.2533 54.6816 31.04C54.3882 30.8267 53.8816 30.6867 53.1616 30.62L52.2016 30.52C50.9882 30.3867 50.0549 30.04 49.4016 29.48C48.7482 28.92 48.4216 28.1733 48.4216 27.24C48.4216 26.4933 48.6082 25.8667 48.9816 25.36C49.3549 24.8533 49.8682 24.4733 50.5216 24.22C51.1882 23.9533 51.9482 23.82 52.8016 23.82C54.1349 23.82 55.2149 24.1133 56.0416 24.7C56.8682 25.2867 57.3016 26.1467 57.3416 27.28H54.8416C54.8149 26.9067 54.6282 26.5867 54.2816 26.32C53.9349 26.0533 53.4349 25.92 52.7816 25.92C52.1949 25.92 51.7416 26.0333 51.4216 26.26C51.1016 26.4867 50.9416 26.78 50.9416 27.14C50.9416 27.4867 51.0682 27.7533 51.3216 27.94C51.5882 28.1267 52.0149 28.2533 52.6016 28.32L53.5616 28.42C54.8416 28.5533 55.8416 28.9067 56.5616 29.48C57.2949 30.0533 57.6616 30.8267 57.6616 31.8C57.6616 32.52 57.4616 33.1467 57.0616 33.68C56.6749 34.2 56.1282 34.6067 55.4216 34.9C54.7149 35.1933 53.8816 35.34 52.9216 35.34ZM64.0581 35.34C62.8048 35.34 61.8315 34.9267 61.1381 34.1C60.4581 33.2733 60.1181 32.0467 60.1181 30.42V24.12H62.8981V30.66C62.8981 31.3267 63.0848 31.86 63.4581 32.26C63.8315 32.6467 64.3381 32.84 64.9781 32.84C65.6181 32.84 66.1381 32.6333 66.5381 32.22C66.9515 31.8067 67.1581 31.2467 67.1581 30.54V24.12H69.9381V35H67.7381V30.38H67.9581C67.9581 31.4733 67.8181 32.3867 67.5381 33.12C67.2581 33.8533 66.8381 34.4067 66.2781 34.78C65.7181 35.1533 65.0181 35.34 64.1781 35.34H64.0581ZM73.5316 35V24.14H75.7316V28.8H75.5316C75.5316 27.7067 75.6716 26.7933 75.9516 26.06C76.2316 25.3133 76.6449 24.7533 77.1916 24.38C77.7516 23.9933 78.4449 23.8 79.2716 23.8H79.3916C80.2316 23.8 80.9249 23.9933 81.4716 24.38C82.0316 24.7533 82.4449 25.3133 82.7116 26.06C82.9916 26.7933 83.1316 27.7067 83.1316 28.8H82.4316C82.4316 27.7067 82.5716 26.7933 82.8516 26.06C83.1449 25.3133 83.5649 24.7533 84.1116 24.38C84.6716 23.9933 85.3649 23.8 86.1916 23.8H86.3116C87.1516 23.8 87.8516 23.9933 88.4116 24.38C88.9716 24.7533 89.3916 25.3133 89.6716 26.06C89.9649 26.7933 90.1116 27.7067 90.1116 28.8V35H87.3316V28.54C87.3316 27.86 87.1582 27.32 86.8116 26.92C86.4649 26.5067 85.9716 26.3 85.3316 26.3C84.6916 26.3 84.1782 26.5133 83.7916 26.94C83.4049 27.3533 83.2116 27.9133 83.2116 28.62V35H80.4316V28.54C80.4316 27.86 80.2582 27.32 79.9116 26.92C79.5649 26.5067 79.0716 26.3 78.4316 26.3C77.7916 26.3 77.2782 26.5133 76.8916 26.94C76.5049 27.3533 76.3116 27.9133 76.3116 28.62V35H73.5316ZM98.3423 35.38C97.409 35.38 96.589 35.22 95.8823 34.9C95.189 34.58 94.609 34.1533 94.1423 33.62C93.689 33.0733 93.3423 32.4667 93.1023 31.8C92.8757 31.1333 92.7623 30.4533 92.7623 29.76V29.38C92.7623 28.66 92.8757 27.9667 93.1023 27.3C93.3423 26.62 93.689 26.02 94.1423 25.5C94.609 24.9667 95.1823 24.5467 95.8623 24.24C96.5423 23.92 97.329 23.76 98.2223 23.76C99.3957 23.76 100.376 24.02 101.162 24.54C101.962 25.0467 102.562 25.72 102.962 26.56C103.362 27.3867 103.562 28.28 103.562 29.24V30.24H93.9423V28.54H101.822L100.962 29.38C100.962 28.6867 100.862 28.0933 100.662 27.6C100.462 27.1067 100.156 26.7267 99.7423 26.46C99.3423 26.1933 98.8357 26.06 98.2223 26.06C97.609 26.06 97.089 26.2 96.6623 26.48C96.2357 26.76 95.909 27.1667 95.6823 27.7C95.469 28.22 95.3623 28.8467 95.3623 29.58C95.3623 30.26 95.469 30.8667 95.6823 31.4C95.8957 31.92 96.2223 32.3333 96.6623 32.64C97.1023 32.9333 97.6623 33.08 98.3423 33.08C99.0223 33.08 99.5757 32.9467 100.002 32.68C100.429 32.4 100.702 32.06 100.822 31.66H103.382C103.222 32.4067 102.916 33.06 102.462 33.62C102.009 34.18 101.429 34.6133 100.722 34.92C100.029 35.2267 99.2357 35.38 98.3423 35.38Z" fill="white"/>
<path d="M130.5 30.5V31.5C130.5 32.9001 130.5 33.6002 130.228 34.135C129.988 34.6054 129.605 34.9878 129.135 35.2275C128.6 35.5 127.9 35.5 126.5 35.5H119.5C118.1 35.5 117.4 35.5 116.865 35.2275C116.395 34.9878 116.012 34.6054 115.772 34.135C115.5 33.6002 115.5 32.9001 115.5 31.5V30.5M127.167 26.3333L123 30.5M123 30.5L118.833 26.3333M123 30.5V20.5" stroke="white" stroke-width="2" stroke-linecap="round" stroke-linejoin="round"/>
</svg>
<symbol id="icon-google" viewBox="0 0 32 32">
<path fill="#4285f4" style="fill: var(--color1, #4285f4)" d="M30.001 16.311c0-1.151-0.095-1.991-0.302-2.862h-13.413v5.195h7.873c-0.159 1.291-1.016 3.236-2.921 4.542l-0.027 0.174 4.241 3.22 0.294 0.029c2.698-2.442 4.254-6.036 4.254-10.298z"></path>
<path fill="#34a853" style="fill: var(--color2, #34a853)" d="M16.286 30c3.857 0 7.095-1.244 9.46-3.391l-4.508-3.422c-1.206 0.825-2.825 1.4-4.952 1.4-3.778 0-6.984-2.442-8.127-5.818l-0.168 0.014-4.41 3.345-0.058 0.157c2.349 4.573 7.175 7.716 12.762 7.716z"></path>
<path fill="#fbbc05" style="fill: var(--color3, #fbbc05)" d="M8.16 18.769c-0.302-0.871-0.476-1.805-0.476-2.769s0.175-1.898 0.46-2.769l-0.008-0.185-4.465-3.398-0.146 0.068c-0.968 1.898-1.524 4.029-1.524 6.284s0.556 4.387 1.524 6.284l4.635-3.515z"></path>
<path fill="#eb4335" style="fill: var(--color4, #eb4335)" d="M16.286 7.413c2.683 0 4.492 1.136 5.524 2.085l4.032-3.858c-2.476-2.256-5.698-3.64-9.555-3.64-5.587 0-10.413 3.142-12.762 7.716l4.619 3.516c1.159-3.376 4.365-5.818 8.143-5.818z"></path>
</symbol>
</svg>
<svg id="youtube" width="32" height="32" viewBox="0 0 32 32" fill="none" xmlns="http://www.w3.org/2000/svg">
<path d="M2.24451 9.94111C2.37304 7.96233 3.96395 6.41157 5.94447 6.31345C8.81239 6.17136 12.9115 6 16 6C19.0885 6 23.1876 6.17136 26.0555 6.31345C28.0361 6.41157 29.627 7.96233 29.7555 9.94111C29.8786 11.8369 30 14.1697 30 16C30 17.8303 29.8786 20.1631 29.7555 22.0589C29.627 24.0377 28.0361 25.5884 26.0555 25.6866C23.1876 25.8286 19.0885 26 16 26C12.9115 26 8.81239 25.8286 5.94447 25.6866C3.96395 25.5884 2.37304 24.0377 2.24451 22.0589C2.12136 20.1631 2 17.8303 2 16C2 14.1697 2.12136 11.8369 2.24451 9.94111Z" fill="#FC0D1B"/>
<path d="M13 12V20L21 16L13 12Z" fill="white"/>
</svg>
<svg id="apple" width="32" height="32" viewBox="0 0 32 32" fill="none" xmlns="http://www.w3.org/2000/svg">
<path d="M30 16C30 23.728 23.735 30 16 30C8.265 30 2 23.728 2 16C2 8.265 8.265 2 16 2C23.735 2 30 8.265 30 16Z" fill="#283544"/>
<path d="M22.5621 12.4574C22.4857 12.502 20.6671 13.4425 20.6671 15.5279C20.7528 17.9061 22.9621 18.7401 23 18.7401C22.9621 18.7847 22.6665 19.8763 21.7907 21.0205C21.0956 22.0062 20.3242 23 19.1528 23C18.0385 23 17.6385 22.3431 16.3528 22.3431C14.972 22.3431 14.5813 23 13.5242 23C12.3528 23 11.5242 21.953 10.7913 20.9766C9.8391 19.6986 9.02978 17.6931 9.00121 15.7675C8.98195 14.7471 9.19189 13.744 9.72481 12.8921C10.477 11.7026 11.8198 10.8952 13.2863 10.8686C14.4099 10.8333 15.4099 11.5875 16.0956 11.5875C16.7528 11.5875 17.9814 10.8686 19.3714 10.8686C19.9714 10.8692 21.5714 11.0376 22.5621 12.4574ZM16.0006 10.6649C15.8006 9.73303 16.3528 8.80119 16.8671 8.20677C17.5242 7.48792 18.5621 7 19.4571 7C19.5143 7.93185 19.1522 8.84575 18.505 9.51136C17.9242 10.2302 16.9242 10.7714 16.0006 10.6649Z" fill="white"/>
</svg>
<svg id="preoject-svg" width="20" height="21" viewBox="0 0 20 21" fill="none" xmlns="http://www.w3.org/2000/svg">
<path d="M10.8333 9.44759L17.6666 2.61426" stroke="white" stroke-width="2" stroke-linecap="round" stroke-linejoin="round"/>
<path d="M18.3333 5.94775V1.94775H14.3333" stroke="white" stroke-width="2" stroke-linecap="round" stroke-linejoin="round"/>
<path d="M9.16675 1.94775H7.50008C3.33341 1.94775 1.66675 3.61442 1.66675 7.78109V12.7811C1.66675 16.9478 3.33341 18.6144 7.50008 18.6144H12.5001C16.6667 18.6144 18.3334 16.9478 18.3334 12.7811V11.1144" stroke="white" stroke-width="2" stroke-linecap="round" stroke-linejoin="round"/>
</svg>
<svg id="get-in" width="173" height="57" viewBox="0 0 173 57" fill="none" xmlns="http://www.w3.org/2000/svg">
<rect y="0.28125" width="173" height="56" rx="4" fill="black"/>
<path d="M28.6 35.6613C27.3467 35.6613 26.24 35.4546 25.28 35.0412C24.3333 34.6146 23.5333 34.0479 22.88 33.3412C22.24 32.6212 21.7533 31.8146 21.42 30.9212C21.1 30.0146 20.94 29.0746 20.94 28.1012V27.6612C20.94 26.7412 21.1 25.8412 21.42 24.9612C21.74 24.0812 22.2067 23.2879 22.82 22.5812C23.4467 21.8746 24.2133 21.3146 25.12 20.9012C26.04 20.4746 27.0933 20.2612 28.28 20.2612C29.56 20.2612 30.6933 20.5012 31.68 20.9812C32.6667 21.4479 33.46 22.1079 34.06 22.9612C34.66 23.8012 35.0133 24.7812 35.12 25.9012H32.26C32.1667 25.2746 31.9333 24.7412 31.56 24.3012C31.1867 23.8479 30.7133 23.5012 30.14 23.2612C29.58 23.0212 28.96 22.9012 28.28 22.9012C27.6 22.9012 26.98 23.0212 26.42 23.2612C25.8733 23.5012 25.4067 23.8412 25.02 24.2812C24.6333 24.7212 24.3333 25.2479 24.12 25.8612C23.92 26.4746 23.82 27.1546 23.82 27.9012C23.82 28.7146 23.9333 29.4412 24.16 30.0812C24.3867 30.7212 24.7067 31.2679 25.12 31.7212C25.5333 32.1612 26.0333 32.5012 26.62 32.7412C27.2067 32.9679 27.8667 33.0812 28.6 33.0812C29.5733 33.0812 30.4267 32.8812 31.16 32.4812C31.8933 32.0679 32.4267 31.5346 32.76 30.8812L32.26 33.1812V29.4212H34.88V32.6612C34.2533 33.6079 33.4 34.3479 32.32 34.8812C31.24 35.4013 30 35.6613 28.6 35.6613ZM28.14 29.9812V27.8612H36.1V29.9812H28.14ZM43.4806 35.6613C42.5473 35.6613 41.7273 35.5013 41.0206 35.1812C40.3273 34.8612 39.7473 34.4346 39.2806 33.9012C38.8273 33.3546 38.4806 32.7479 38.2406 32.0812C38.014 31.4146 37.9006 30.7346 37.9006 30.0412V29.6612C37.9006 28.9412 38.014 28.2479 38.2406 27.5812C38.4806 26.9012 38.8273 26.3012 39.2806 25.7812C39.7473 25.2479 40.3206 24.8279 41.0006 24.5212C41.6806 24.2012 42.4673 24.0412 43.3606 24.0412C44.534 24.0412 45.514 24.3012 46.3006 24.8212C47.1006 25.3279 47.7006 26.0012 48.1006 26.8412C48.5006 27.6679 48.7006 28.5612 48.7006 29.5212V30.5212H39.0806V28.8212H46.9606L46.1006 29.6612C46.1006 28.9679 46.0006 28.3746 45.8006 27.8812C45.6006 27.3879 45.294 27.0079 44.8806 26.7412C44.4806 26.4746 43.974 26.3412 43.3606 26.3412C42.7473 26.3412 42.2273 26.4812 41.8006 26.7612C41.374 27.0412 41.0473 27.4479 40.8206 27.9812C40.6073 28.5012 40.5006 29.1279 40.5006 29.8612C40.5006 30.5412 40.6073 31.1479 40.8206 31.6812C41.034 32.2012 41.3606 32.6146 41.8006 32.9212C42.2406 33.2146 42.8006 33.3612 43.4806 33.3612C44.1606 33.3612 44.714 33.2279 45.1406 32.9612C45.5673 32.6812 45.8406 32.3412 45.9606 31.9412H48.5206C48.3606 32.6879 48.054 33.3412 47.6006 33.9012C47.1473 34.4612 46.5673 34.8946 45.8606 35.2012C45.1673 35.5079 44.374 35.6613 43.4806 35.6613ZM56.143 35.4213C55.143 35.4213 54.3163 35.2946 53.663 35.0412C53.023 34.7746 52.543 34.3346 52.223 33.7212C51.903 33.0946 51.743 32.2546 51.743 31.2012L51.763 21.3612H54.363L54.343 31.3812C54.343 31.9146 54.483 32.3279 54.763 32.6212C55.0563 32.9012 55.4696 33.0412 56.003 33.0412H57.703V35.4213H56.143ZM50.023 26.4612V24.4212H57.703V26.4612H50.023ZM65.4127 35.2812V20.6812H68.2527V35.2812H65.4127ZM72.0761 35.2812V24.4212H74.2761V29.0812H74.0761C74.0761 27.9746 74.2228 27.0546 74.5161 26.3212C74.8094 25.5746 75.2428 25.0146 75.8161 24.6412C76.4028 24.2679 77.1294 24.0812 77.9961 24.0812H78.1161C79.4094 24.0812 80.3894 24.5012 81.0561 25.3412C81.7228 26.1679 82.0561 27.4079 82.0561 29.0612V35.2812H79.2761V28.8212C79.2761 28.1546 79.0828 27.6146 78.6961 27.2012C78.3228 26.7879 77.8028 26.5812 77.1361 26.5812C76.4561 26.5812 75.9028 26.7946 75.4761 27.2212C75.0628 27.6346 74.8561 28.1946 74.8561 28.9012V35.2812H72.0761ZM93.2613 35.2812V22.7812H96.1013V35.2812H93.2613ZM89.0413 23.1812V20.6812H100.321V23.1812H89.0413ZM106.641 35.6613C105.681 35.6613 104.834 35.5079 104.101 35.2012C103.367 34.8946 102.747 34.4812 102.241 33.9613C101.734 33.4279 101.347 32.8279 101.081 32.1612C100.827 31.4946 100.701 30.8012 100.701 30.0812V29.6612C100.701 28.9146 100.834 28.2079 101.101 27.5412C101.381 26.8612 101.774 26.2612 102.281 25.7412C102.801 25.2079 103.427 24.7946 104.161 24.5012C104.894 24.1946 105.721 24.0412 106.641 24.0412C107.561 24.0412 108.387 24.1946 109.121 24.5012C109.854 24.7946 110.474 25.2079 110.981 25.7412C111.501 26.2612 111.894 26.8612 112.161 27.5412C112.427 28.2079 112.561 28.9146 112.561 29.6612V30.0812C112.561 30.8012 112.427 31.4946 112.161 32.1612C111.907 32.8279 111.527 33.4279 111.021 33.9613C110.514 34.4812 109.894 34.8946 109.161 35.2012C108.427 35.5079 107.587 35.6613 106.641 35.6613ZM106.641 33.2812C107.321 33.2812 107.894 33.1346 108.361 32.8412C108.827 32.5346 109.181 32.1279 109.421 31.6212C109.661 31.1012 109.781 30.5146 109.781 29.8612C109.781 29.1946 109.654 28.6079 109.401 28.1012C109.161 27.5812 108.801 27.1746 108.321 26.8812C107.854 26.5746 107.294 26.4212 106.641 26.4212C105.987 26.4212 105.421 26.5746 104.941 26.8812C104.474 27.1746 104.114 27.5812 103.861 28.1012C103.607 28.6079 103.481 29.1946 103.481 29.8612C103.481 30.5146 103.601 31.1012 103.841 31.6212C104.094 32.1279 104.454 32.5346 104.921 32.8412C105.387 33.1346 105.961 33.2812 106.641 33.2812ZM119.095 35.6213C117.842 35.6213 116.868 35.2079 116.175 34.3812C115.495 33.5546 115.155 32.3279 115.155 30.7012V24.4012H117.935V30.9412C117.935 31.6079 118.122 32.1412 118.495 32.5412C118.868 32.9279 119.375 33.1212 120.015 33.1212C120.655 33.1212 121.175 32.9146 121.575 32.5012C121.988 32.0879 122.195 31.5279 122.195 30.8212V24.4012H124.975V35.2812H122.775V30.6612H122.995C122.995 31.7546 122.855 32.6679 122.575 33.4012C122.295 34.1346 121.875 34.6879 121.315 35.0612C120.755 35.4346 120.055 35.6213 119.215 35.6213H119.095ZM133.388 35.6613C132.442 35.6613 131.622 35.5013 130.928 35.1812C130.248 34.8612 129.675 34.4346 129.208 33.9012C128.755 33.3679 128.415 32.7679 128.188 32.1012C127.962 31.4346 127.848 30.7546 127.848 30.0612V29.6812C127.848 28.9479 127.962 28.2479 128.188 27.5812C128.428 26.9012 128.782 26.3012 129.248 25.7812C129.715 25.2479 130.288 24.8279 130.968 24.5212C131.662 24.2012 132.462 24.0412 133.368 24.0412C134.315 24.0412 135.162 24.2279 135.908 24.6012C136.655 24.9612 137.248 25.4679 137.688 26.1212C138.142 26.7746 138.395 27.5346 138.448 28.4012H135.748C135.682 27.8412 135.442 27.3746 135.028 27.0012C134.628 26.6279 134.075 26.4412 133.368 26.4412C132.755 26.4412 132.242 26.5879 131.828 26.8812C131.428 27.1746 131.128 27.5812 130.928 28.1012C130.728 28.6079 130.628 29.1946 130.628 29.8612C130.628 30.5012 130.722 31.0812 130.908 31.6012C131.108 32.1212 131.408 32.5279 131.808 32.8212C132.222 33.1146 132.748 33.2612 133.388 33.2612C133.868 33.2612 134.282 33.1746 134.628 33.0012C134.975 32.8279 135.248 32.5879 135.448 32.2812C135.662 31.9746 135.795 31.6279 135.848 31.2412H138.548C138.495 32.1212 138.235 32.8946 137.768 33.5612C137.315 34.2146 136.708 34.7279 135.948 35.1012C135.202 35.4746 134.348 35.6613 133.388 35.6613ZM141.175 35.2812V20.6812H143.955V29.2012H143.475C143.475 28.1079 143.615 27.1812 143.895 26.4212C144.175 25.6612 144.589 25.0812 145.135 24.6812C145.695 24.2812 146.402 24.0812 147.255 24.0812H147.375C148.615 24.0812 149.555 24.5079 150.195 25.3612C150.835 26.2146 151.155 27.4546 151.155 29.0812V35.2812H148.375V28.8212C148.375 28.1279 148.175 27.5812 147.775 27.1812C147.389 26.7812 146.875 26.5812 146.235 26.5812C145.555 26.5812 145.002 26.8079 144.575 27.2612C144.162 27.7012 143.955 28.2812 143.955 29.0012V35.2812H141.175Z" fill="white"/>
</svg>
<svg id="facebook" width="56" height="57" viewBox="0 0 56 57" fill="none" xmlns="http://www.w3.org/2000/svg">
<rect y="0.28125" width="56" height="56" rx="4" fill="black"/>
<g clip-path="url(#clip0_410_1242)">
<path d="M38 28.2812C38 22.7584 33.5229 18.2812 28 18.2812C22.4771 18.2812 18 22.7584 18 28.2812C18 33.2725 21.6568 37.4096 26.4375 38.1598V31.1719H23.8984V28.2812H26.4375V26.0781C26.4375 23.5719 27.9305 22.1875 30.2146 22.1875C31.3084 22.1875 32.4531 22.3828 32.4531 22.3828V24.8438H31.1922C29.95 24.8438 29.5625 25.6146 29.5625 26.4062V28.2812H32.3359L31.8926 31.1719H29.5625V38.1598C34.3432 37.4096 38 33.2725 38 28.2812Z" fill="white"/>
<svg id="" width="58" height="59" viewBox="0 0 58 59" fill="none" xmlns="http://www.w3.org/2000/svg">
<rect x="1" y="1.28125" width="56" height="56" rx="4" stroke="black" stroke-width="2"/>
<path fill-rule="evenodd" clip-rule="evenodd" d="M39 29.2812C39 34.8041 34.5228 39.2812 29 39.2812C23.4772 39.2812 19 34.8041 19 29.2812C19 23.7584 23.4772 19.2812 29 19.2812C34.5228 19.2812 39 23.7584 39 29.2812ZM34.2047 27.8192C35.0117 27.8192 35.6667 28.4742 35.6667 29.2812C35.6667 29.8777 35.3041 30.3923 34.8246 30.6263C34.848 30.7666 34.8597 30.907 34.8597 31.059C34.8597 33.3046 32.2515 35.1175 29.0234 35.1175C25.7953 35.1175 23.1871 33.3046 23.1871 31.059C23.1871 30.907 23.1988 30.7549 23.2222 30.6146C22.7076 30.3806 22.3567 29.8777 22.3567 29.2812C22.3567 28.4742 23.0117 27.8192 23.8187 27.8192C24.2047 27.8192 24.5673 27.983 24.8246 28.2286C25.8304 27.4918 27.2222 27.0356 28.7778 26.9888L29.5146 23.5035C29.538 23.4333 29.5731 23.3748 29.6316 23.3397C29.6901 23.3046 29.7602 23.2929 29.8304 23.3046L32.2515 23.8192C32.4152 23.4684 32.7661 23.2344 33.1754 23.2344C33.7485 23.2344 34.2164 23.7023 34.2164 24.2754C34.2164 24.8485 33.7485 25.3163 33.1754 25.3163C32.614 25.3163 32.1579 24.8719 32.1345 24.3222L29.9708 23.866L29.3041 26.9888C30.8246 27.0473 32.2047 27.5151 33.1988 28.2286C33.4561 27.9713 33.807 27.8192 34.2047 27.8192ZM26.7076 29.2812C26.1345 29.2812 25.6667 29.7491 25.6667 30.3222C25.6667 30.8953 26.1345 31.3631 26.7076 31.3631C27.2807 31.3631 27.7485 30.8953 27.7485 30.3222C27.7485 29.7491 27.2807 29.2812 26.7076 29.2812ZM29.0117 33.8309C29.4094 33.8309 30.7661 33.7842 31.4795 33.0707C31.5848 32.9654 31.5848 32.8017 31.5029 32.6847C31.3977 32.5795 31.2222 32.5795 31.117 32.6847C30.6608 33.1292 29.7135 33.2929 29.0234 33.2929C28.3333 33.2929 27.3743 33.1292 26.9298 32.6847C26.8246 32.5795 26.6491 32.5795 26.5439 32.6847C26.4386 32.79 26.4386 32.9654 26.5439 33.0707C27.2456 33.7725 28.614 33.8309 29.0117 33.8309ZM30.2515 30.3222C30.2515 30.8953 30.7193 31.3631 31.2924 31.3631C31.8655 31.3631 32.3333 30.8953 32.3333 30.3222C32.3333 29.7491 31.8655 29.2812 31.2924 29.2812C30.7193 29.2812 30.2515 29.7491 30.2515 30.3222Z" fill="black"/>
</svg>
<svg id="" width="58" height="59" viewBox="0 0 58 59" fill="none" xmlns="http://www.w3.org/2000/svg">
<rect x="1" y="1.28125" width="56" height="56" rx="4" stroke="black" stroke-width="2"/>
<path fill-rule="evenodd" clip-rule="evenodd" d="M39 29.2812C39 34.8041 34.5228 39.2812 29 39.2812C23.4772 39.2812 19 34.8041 19 29.2812C19 23.7584 23.4772 19.2812 29 19.2812C34.5228 19.2812 39 23.7584 39 29.2812ZM34.2047 27.8192C35.0117 27.8192 35.6667 28.4742 35.6667 29.2812C35.6667 29.8777 35.3041 30.3923 34.8246 30.6263C34.848 30.7666 34.8597 30.907 34.8597 31.059C34.8597 33.3046 32.2515 35.1175 29.0234 35.1175C25.7953 35.1175 23.1871 33.3046 23.1871 31.059C23.1871 30.907 23.1988 30.7549 23.2222 30.6146C22.7076 30.3806 22.3567 29.8777 22.3567 29.2812C22.3567 28.4742 23.0117 27.8192 23.8187 27.8192C24.2047 27.8192 24.5673 27.983 24.8246 28.2286C25.8304 27.4918 27.2222 27.0356 28.7778 26.9888L29.5146 23.5035C29.538 23.4333 29.5731 23.3748 29.6316 23.3397C29.6901 23.3046 29.7602 23.2929 29.8304 23.3046L32.2515 23.8192C32.4152 23.4684 32.7661 23.2344 33.1754 23.2344C33.7485 23.2344 34.2164 23.7023 34.2164 24.2754C34.2164 24.8485 33.7485 25.3163 33.1754 25.3163C32.614 25.3163 32.1579 24.8719 32.1345 24.3222L29.9708 23.866L29.3041 26.9888C30.8246 27.0473 32.2047 27.5151 33.1988 28.2286C33.4561 27.9713 33.807 27.8192 34.2047 27.8192ZM26.7076 29.2812C26.1345 29.2812 25.6667 29.7491 25.6667 30.3222C25.6667 30.8953 26.1345 31.3631 26.7076 31.3631C27.2807 31.3631 27.7485 30.8953 27.7485 30.3222C27.7485 29.7491 27.2807 29.2812 26.7076 29.2812ZM29.0117 33.8309C29.4094 33.8309 30.7661 33.7842 31.4795 33.0707C31.5848 32.9654 31.5848 32.8017 31.5029 32.6847C31.3977 32.5795 31.2222 32.5795 31.117 32.6847C30.6608 33.1292 29.7135 33.2929 29.0234 33.2929C28.3333 33.2929 27.3743 33.1292 26.9298 32.6847C26.8246 32.5795 26.6491 32.5795 26.5439 32.6847C26.4386 32.79 26.4386 32.9654 26.5439 33.0707C27.2456 33.7725 28.614 33.8309 29.0117 33.8309ZM30.2515 30.3222C30.2515 30.8953 30.7193 31.3631 31.2924 31.3631C31.8655 31.3631 32.3333 30.8953 32.3333 30.3222C32.3333 29.7491 31.8655 29.2812 31.2924 29.2812C30.7193 29.2812 30.2515 29.7491 30.2515 30.3222Z" fill="black"/>
</svg>
<svg id="" width="58" height="59" viewBox="0 0 58 59" fill="none" xmlns="http://www.w3.org/2000/svg">
<rect x="1" y="1.28125" width="56" height="56" rx="4" stroke="black" stroke-width="2"/>
<path d="M27.24 27.6714C26.67 27.6714 26.22 28.1714 26.22 28.7814C26.22 29.3914 26.68 29.8914 27.24 29.8914C27.81 29.8914 28.26 29.3914 28.26 28.7814C28.27 28.1714 27.81 27.6714 27.24 27.6714ZM30.89 27.6714C30.32 27.6714 29.87 28.1714 29.87 28.7814C29.87 29.3914 30.33 29.8914 30.89 29.8914C31.46 29.8914 31.91 29.3914 31.91 28.7814C31.91 28.1714 31.46 27.6714 30.89 27.6714Z" fill="black"/>
<path d="M35.75 19.2812H22.35C21.22 19.2812 20.3 20.2012 20.3 21.3412V34.8613C20.3 36.0013 21.22 36.9212 22.35 36.9212H33.69L33.16 35.0712L34.44 36.2613L35.65 37.3813L37.8 39.2812V21.3412C37.8 20.2012 36.88 19.2812 35.75 19.2812ZM31.89 32.3413C31.89 32.3413 31.53 31.9113 31.23 31.5312C32.54 31.1613 33.04 30.3413 33.04 30.3413C32.63 30.6113 32.24 30.8013 31.89 30.9313C31.39 31.1413 30.91 31.2813 30.44 31.3613C29.48 31.5413 28.6 31.4913 27.85 31.3512C27.28 31.2413 26.79 31.0812 26.38 30.9212C26.15 30.8312 25.9 30.7213 25.65 30.5813C25.62 30.5612 25.59 30.5513 25.56 30.5312C25.54 30.5212 25.53 30.5112 25.52 30.5013C25.34 30.4012 25.24 30.3313 25.24 30.3313C25.24 30.3313 25.72 31.1313 26.99 31.5113C26.69 31.8913 26.32 32.3413 26.32 32.3413C24.11 32.2713 23.27 30.8212 23.27 30.8212C23.27 27.6012 24.71 24.9913 24.71 24.9913C26.15 23.9113 27.52 23.9412 27.52 23.9412L27.62 24.0613C25.82 24.5813 24.99 25.3713 24.99 25.3713C24.99 25.3713 25.21 25.2513 25.58 25.0813C26.65 24.6112 27.5 24.4812 27.85 24.4512C27.91 24.4412 27.96 24.4313 28.02 24.4313C28.63 24.3513 29.32 24.3313 30.04 24.4113C30.99 24.5213 32.01 24.8013 33.05 25.3713C33.05 25.3713 32.26 24.6212 30.5601 24.1012L30.7 23.9412C30.7 23.9412 32.07 23.9113 33.51 24.9913C33.51 24.9913 34.95 27.6012 34.95 30.8212C34.95 30.8212 34.1 32.2713 31.89 32.3413Z" fill="black"/>
</svg>










